<?xml version="1.0" encoding="UTF-8" standalone="no"?>
<!-- Created with Inkscape (http://www.inkscape.org/) -->

<svg
   width="112.50027mm"
   height="112.50011mm"
   viewBox="0 0 112.50027 112.50011"
   version="1.1"
   id="svg5"
   inkscapeVersion="1.1.2 (76b9e6a115, 2022-02-25)"
   sodipodiDocname="dibujo.svg"
   xmlnsInkscape="http://www.inkscape.org/namespaces/inkscape"
   xmlnsSodipodi="http://sodipodi.sourceforge.net/DTD/sodipodi-0.dtd"
   xmlns="http://www.w3.org/2000/svg"
   xmlnsSvg="http://www.w3.org/2000/svg">
  <sodipodiNamedview
     id="namedview7"
     pagecolor="#ffffff"
     bordercolor="#666666"
     borderopacity="1.0"
     inkscapePageshadow="2"
     inkscapePageopacity="0.0"
     inkscapePagecheckerboard="0"
     inkscapeDocument-units="mm"
     showgrid="false"
     inkscapeZoom="0.77771465"
     inkscapeCx="-72.648754"
     inkscapeCy="554.18784"
     inkscapeWindow-width="2560"
     inkscapeWindow-height="1375"
     inkscapeWindow-x="1920"
     inkscapeWindow-y="40"
     inkscapeWindow-maximized="1"
     inkscapeCurrent-layer="layer1"
     fit-margin-top="0"
     fit-margin-left="0"
     fit-margin-right="0"
     fit-margin-bottom="0" />
  <defs
     id="defs2" />
  <g
     inkscapeLabel="Capa 1"
     inkscapeGroupmode="layer"
     id="layer1"
     transform="translate(-1.2447124,-1.5850014)">
    <g
       id="g18427"
       transform="matrix(0.25400529,0,0,0.25400529,-10.913073,-109.39753)">
      <path
         id="path4708-4"
         style="fill:#000000"
         inkscapeConnector-curvature="0"
         d="m 257.27,436.93 c -3.789,0 -6.8438,3.0563 -6.8438,6.8438 v 16.969 c 0,3.341 -7.3125,5.2188 -7.3125,5.2188 -7.8952,1.0654 -15.654,2.6402 -23.219,4.625 -0.006,-10e-4 -7.4394,1.0261 -8.7188,-2.0625 -1.2793,-3.0886 -6.4375,-15.625 -6.4375,-15.625 -1.4497,-3.5019 -5.4981,-5.1997 -9,-3.75 l -22.312,9.2812 c -3.5003,1.4497 -5.1387,5.4668 -3.6875,8.9688 0,0 5.2207,12.533 6.5,15.625 1.2793,3.0855 -4.75,7.625 -4.75,7.625 -6.844,4.0008 -13.442,8.3749 -19.719,13.156 0.001,0.001 -6.4479,3.7989 -8.8125,1.4375 -2.363,-2.3677 -11.969,-11.969 -11.969,-11.969 -2.6801,-2.6801 -7.0403,-2.6801 -9.7188,0 l -17.062,17.062 c -2.6785,2.68 -2.6801,7.0074 0,9.6875 0,0 9.637,9.6354 12,12 2.363,2.3646 -1.4375,8.8125 -1.4375,8.8125 -4.785,6.2817 -9.153,12.869 -13.156,19.719 0.002,-0.001 -4.5692,5.9668 -7.6562,4.6875 -3.0886,-1.2824 -15.625,-6.4688 -15.625,-6.4688 -3.5003,-1.4497 -7.5175,0.22159 -8.9688,3.7188 l -9.2188,22.312 c -1.4497,3.4972 0.18717,7.4878 3.6875,8.9375 0,0 12.536,5.2207 15.625,6.5 3.0886,1.2809 2.0938,8.7188 2.0938,8.7188 -1.9847,7.5636 -3.5283,15.324 -4.5938,23.219 h -0.0625 c 10e-4,10e-4 -1.8762,7.3141 -5.2188,7.3125 h -16.906 c -3.789,10e-4 -6.9062,3.0516 -6.9062,6.8438 v 24.094 c 10e-4,3.7874 3.1157,6.8438 6.9062,6.8438 h 16.906 c 3.341,0 5.2188,7.3125 5.2188,7.3125 h 0.0625 c 1.0698,7.9266 2.5974,15.719 4.5938,23.312 0.0364,0.29173 0.99402,7.3735 -2.0312,8.625 -3.0886,1.2777 -15.688,6.5 -15.688,6.5 -3.5003,1.4512 -5.1356,5.434 -3.6875,8.9375 l 9.2188,22.312 c 1.4497,3.4987 5.4684,5.1652 8.9688,3.7187 0,0 12.535,-5.1926 15.625,-6.4687 3.087,-1.2793 7.6562,4.6875 7.6562,4.6875 4.0032,6.8494 8.3713,13.437 13.156,19.719 0.002,0 3.8021,6.4495 1.4375,8.8125 -2.3662,2.3646 -12,12 -12,12 -2.6785,2.6785 -2.6785,7.0059 0,9.6875 l 17.062,17.062 c 2.6785,2.6785 7.0403,2.6785 9.7188,0 0,0 9.6042,-9.6057 11.969,-11.969 2.363,-2.3646 8.8125,1.4375 8.8125,1.4375 6.2818,4.7849 12.869,9.1531 19.719,13.156 0.002,-10e-4 6.0324,4.5396 4.75,7.625 -1.2809,3.0886 -6.5,15.625 -6.5,15.625 -1.4481,3.4972 0.18718,7.5159 3.6875,8.9688 l 22.312,9.2812 c 3.5003,1.4513 7.5488,-0.2512 9,-3.75 0,0 5.1566,-12.536 6.4375,-15.625 1.2777,-3.0886 8.7188,-2.0625 8.7188,-2.0625 7.5644,1.9848 15.324,3.5596 23.219,4.625 0,0 7.3157,1.8746 7.3125,5.2188 v 16.969 c 10e-4,3.7874 3.0532,6.8406 6.8438,6.8438 h 24.156 c 3.7874,0 6.8422,-3.0532 6.8438,-6.8438 0,0 -0.001,-13.621 0,-16.969 -0.001,-3.341 7.25,-5.2188 7.25,-5.2188 7.9163,-1.0677 15.698,-2.6331 23.281,-4.625 -0.002,-10e-4 7.3785,-1.0261 8.6562,2.0625 1.2793,3.0886 6.5312,15.625 6.5312,15.625 1.4497,3.4972 5.4653,5.1966 8.9688,3.75 l 22.281,-9.2812 c 3.4988,-1.4529 5.134,-5.4653 3.6875,-8.9688 0,0 -5.1894,-12.536 -6.4688,-15.625 -1.2793,-3.0886 4.6875,-7.625 4.6875,-7.625 6.8494,-4.0032 13.437,-8.3713 19.719,-13.156 0,10e-4 6.4808,-3.8021 8.8438,-1.4375 2.3646,2.363 11.969,11.969 11.969,11.969 2.6816,2.6738 7.034,2.6738 9.7188,0 l 17.031,-17.062 c 2.6785,-2.6784 2.6801,-7.0074 0,-9.6875 0,0 -9.6026,-9.6386 -11.969,-12 -2.3646,-2.3661 1.4375,-8.8125 1.4375,-8.8125 4.7864,-6.2836 9.2146,-12.867 13.219,-19.719 -0.001,0 4.5083,-6.0293 7.5938,-4.75 3.0902,1.2809 15.656,6.5312 15.656,6.5312 3.5003,1.4465 7.4847,-0.22 8.9375,-3.7187 l 9.25,-22.312 c 1.4481,-3.5019 -0.25125,-7.4847 -3.75,-8.9375 0,0 -12.536,-5.2207 -15.625,-6.5 -3.0886,-1.2793 -2.0625,-8.7188 -2.0625,-8.7188 1.9848,-7.5644 3.5595,-15.324 4.625,-23.219 0,10e-4 1.9106,-7.3157 5.25,-7.3125 h 16.938 c 3.7858,-0.003 6.8406,-3.0516 6.8438,-6.8438 v -24.094 c 0,-3.7874 -3.0548,-6.9062 -6.8438,-6.9062 h -16.938 c -3.3426,0 -5.25,-7.25 -5.25,-7.25 -1.0655,-7.8951 -2.6402,-15.654 -4.625,-23.219 0,0 -1.0245,-7.441 2.0625,-8.7188 3.0886,-1.2777 15.625,-6.5 15.625,-6.5 3.4988,-1.4497 5.1965,-5.4669 3.75,-8.9688 l -9.25,-22.281 c -1.4512,-3.5003 -5.4372,-5.1653 -8.9375,-3.7188 0,0 -12.564,5.1879 -15.656,6.4688 -3.087,1.2809 -7.5938,-4.6875 -7.5938,-4.6875 -4.0042,-6.8517 -8.4324,-13.435 -13.219,-19.719 0.001,-0.003 -3.8005,-6.4495 -1.4375,-8.8125 2.3661,-2.3614 11.969,-12 11.969,-12 2.6785,-2.68 2.6769,-7.0059 0,-9.6875 l -17.02,-17.03 c -2.6801,-2.6753 -7.0387,-2.6753 -9.7188,0 0,0 -9.6026,9.6058 -11.969,11.969 -2.363,2.3662 -8.8438,-1.4375 -8.8438,-1.4375 -6.277,-4.7813 -12.875,-9.1555 -19.719,-13.156 0.002,0.001 -5.9668,-4.5364 -4.6875,-7.625 1.2809,-3.0886 6.4688,-15.625 6.4688,-15.625 1.4497,-3.5003 -0.18875,-7.5159 -3.6875,-8.9688 l -22.28,-9.29 c -3.5003,-1.4465 -7.5191,0.24967 -8.9688,3.75 0,0 -5.2504,12.535 -6.5312,15.625 -1.2777,3.0886 -8.6562,2.0625 -8.6562,2.0625 -7.5837,-1.9919 -15.365,-3.5573 -23.281,-4.625 0,0.001 -7.25,-1.8778 -7.25,-5.2188 v -16.969 c 0,-3.7874 -3.1173,-6.8438 -6.9062,-6.8438 h -24.094 z m 12.062,56.156 c 91.285,0 165.28,74.027 165.28,165.31 0,91.285 -73.996,165.28 -165.28,165.28 -91.285,0 -165.28,-73.996 -165.28,-165.28 0,-91.285 73.996,-165.31 165.28,-165.31 z" />
      <path
         id="path3269-9"
         d="m 310.79,539.32 c -1.4804,0.0443 -2.5686,0.20069 -3.6437,0.47397 -0.55618,0.14146 -1.2752,0.30756 -1.5997,0.38511 -0.89948,0.21496 -2.361,0.78303 -3.1105,1.1849 -0.36932,0.19828 -0.72869,0.35548 -0.79977,0.35548 -0.23409,0 -2.7231,1.543 -3.851,2.3995 -1.0486,0.79622 -3.7029,3.4511 -3.7029,3.7029 0,0.0662 -0.21905,0.37642 -0.47395,0.68131 -0.52043,0.62183 -0.57732,0.71611 -1.5998,2.4884 -0.9083,1.5752 -2.0162,4.528 -2.3699,6.3097 -0.14672,0.74182 -0.35328,1.7285 -0.44428,2.1921 -0.0909,0.46366 -0.12883,1.8992 -0.089,3.1697 0.0406,1.2705 0.0387,1.9736 -0.0293,2.0144 -14.8,0.64846 -28.656,0.93782 -44.515,1.4802 1.6239,1.9919 3.2999,3.316 4.8563,5.3061 l -33.123,0.99475 9.4154,7.4124 c 8.5184,-0.12554 18.642,-0.29872 24.065,-0.47553 2.2085,-0.0717 7.0494,-0.2246 7.0998,-0.14328 -1.9719,1.6224 -4.1393,3.0033 -6.221,4.4731 -3.5671,2.3022 -7.0655,4.7061 -10.605,7.0503 -4.5171,3.071 -9.0118,6.1401 -13.567,9.1536 -6.9318,4.6598 -10.59,7.1248 -11.553,7.7909 -7.8942,4.618 -12.602,13.123 -14.071,21.388 -0.37228,2.2087 -0.79979,4.6753 -0.94795,5.4803 -0.3134,1.7035 -0.31597,1.7104 -0.47397,2.8142 -0.0662,0.46365 -0.21285,1.1824 -0.29627,1.5997 -0.43177,2.1509 -0.57016,2.9604 -0.5332,3.1401 0.0218,0.10893 -0.013,0.24903 -0.0888,0.29622 -0.0755,0.0469 -5.4087,0.1187 -11.849,0.17774 -22.286,0.20467 -21.903,0.1926 -26.454,0.82947 -3.4296,0.47999 -10.469,2.2438 -12.56,3.14 -0.37226,0.1595 -0.72378,0.29714 -0.77021,0.29621 -0.0463,-9.4e-4 -0.43652,0.15544 -0.8887,0.3555 -0.45227,0.20006 -0.87588,0.35546 -0.94797,0.35546 -0.14594,0 -0.32248,0.0757 -4.1472,1.9552 -1.4836,0.72906 -3.3718,1.7575 -4.2065,2.281 -1.1041,0.59133 -2.0064,1.0432 -2.8439,1.4516 h -13.804 c -0.53016,-0.42506 -1.0899,-0.7702 -2.044,-0.7702 -1.4659,0 -2.6365,2.9708 -2.6365,6.6356 0,3.6648 1.1706,6.6356 2.6365,6.6356 0.54972,0 0.78353,-0.66723 2.1329,-0.26661 0.14235,0.0422 0.30876,0.11229 0.47398,0.17774 -0.34893,0.32374 -1.186,1.3627 -1.8366,2.3106 -0.28598,0.41732 -0.66483,0.92095 -0.85906,1.1257 -0.19424,0.20476 -0.35548,0.39873 -0.35548,0.44432 0,0.078 -0.28734,0.52494 -1.5404,2.3106 -0.29262,0.41729 -0.80158,1.2339 -1.1257,1.8366 -0.32401,0.60275 -0.62465,1.1386 -0.68132,1.1849 -0.0578,0.0463 -0.33246,0.49719 -0.59248,1.0072 -0.26021,0.50999 -0.53865,1.0458 -0.62208,1.1849 -0.3933,0.65909 -1.8725,3.9967 -2.518,5.658 -0.39635,1.0201 -0.78134,2.0067 -0.85907,2.1921 -0.31504,0.74617 -1.3718,4.3108 -1.7478,5.895 -0.89002,3.7523 -1.1686,5.2734 -1.3627,7.4947 -0.053,0.60271 -0.13203,1.2235 -0.17773,1.3627 -0.0462,0.13911 -0.13517,1.0407 -0.17772,2.0144 -0.0426,0.97363 -0.10545,1.9887 -0.14812,2.2513 -0.0425,0.26251 -0.0106,0.64392 0.0887,0.82945 0.15886,0.29635 0.22654,0.30038 0.47395,0.0887 0.15489,-0.13218 0.88752,-0.51463 1.6293,-0.85908 0.74194,-0.34442 1.4604,-0.71923 1.5996,-0.7998 0.29716,-0.17341 4.6854,-2.3546 7.9094,-3.9399 0.11431,-0.0561 0.1858,-0.0945 0.29623,-0.14807 -0.1859,1.7883 -0.26661,3.6134 -0.26661,5.4506 0,4.185 0.48886,8.2468 1.4219,12.146 -2.2809,0.13874 -4.6992,0.13997 -7.2577,-0.50361 1.0732,2.3321 3.2675,5.5642 0.44435,8.8574 2.5834,3.3624 -0.88347,6.4432 -0.82946,6.9911 4.0309,-1.4651 7.5846,-1.4355 13.419,-1.1256 9.0551,15.364 25.753,25.683 44.879,25.683 15.648,0 29.681,-6.9094 39.221,-17.833 0.59265,0.0374 1.298,0.10644 2.5476,0.26661 1.9348,0.24811 6.392,1.4017 10.546,1.7774 1.0287,0.0926 2.6306,0.112 3.5252,0.0592 2.4523,0.11349 5.0428,-0.21942 7.1984,-0.32586 3.1991,-0.15184 9.4465,-0.43032 11.079,-0.50359 4.6825,-0.21001 6.0209,-0.27926 7.3169,-0.35547 0.78829,-0.0452 2.4936,-0.10707 3.7918,-0.14814 1.2983,-0.0408 2.9612,-0.1294 3.703,-0.17772 0.74196,-0.0478 2.2219,-0.12646 3.2881,-0.17774 1.0664,-0.0511 3.3501,-0.15196 5.0656,-0.23698 1.7155,-0.0848 4.1396,-0.19159 5.3914,-0.23699 5.2596,-0.18951 7.4013,-0.28374 8.1168,-0.35549 0.41739,-0.0428 2.0376,-0.12352 3.614,-0.17774 1.5762,-0.0537 3.9863,-0.17864 5.3618,-0.26662 1.3747,-0.088 3.0382,-0.14764 3.7028,-0.14809 2.8064,-0.002 7.1243,-1.09 10.042,-2.518 2.9062,-1.4224 5.8833,-3.6988 8.0575,-6.1616 2.6558,-3.0095 4.9856,-7.7523 5.895,-12.027 0.16266,-0.76466 0.30142,-1.358 0.3258,-1.3331 0.0246,0.0249 0.0998,0.24419 0.14815,0.47399 0.93324,4.4793 2.9546,10.394 4.799,13.982 1.535,2.9866 4.6258,8.0666 4.9175,8.0871 0.10055,0.007 3.2376,-1.9116 4.8285,-2.9623 0.47331,-0.31249 0.95394,-0.56284 1.0961,-0.56284 0.14231,0 0.43264,0.21574 0.65172,0.50359 0.21916,0.28773 0.5555,0.70405 0.74054,0.91833 0.18551,0.21426 0.62356,0.72788 0.94795,1.1257 2.7382,3.3551 7.4482,7.7023 10.309,9.5091 0.14684,0.0925 0.78406,0.49107 1.4219,0.91831 0.63826,0.42724 1.3808,0.91226 1.6589,1.0664 0.27822,0.15434 0.95459,0.54002 1.5108,0.85909 1.5927,0.91314 5.1358,2.6365 5.4507,2.6365 0.0634,4.5e-4 0.31728,0.0797 0.56289,0.20735 0.90149,0.47033 7.966,2.594 9.6868,2.9031 0.27829,0.0501 0.99676,0.10122 1.5997,0.14812 0.60269,0.0475 1.5043,0.12938 2.0144,0.17774 2.8819,0.26933 5.379,0.38596 7.1688,0.32587 1.7999,-0.0598 6.0408,-0.465 7.1688,-0.68134 1.6542,-0.31733 3.0391,-0.58197 3.6141,-0.71093 1.1926,-0.26808 5.3157,-1.5418 5.5692,-1.7182 0.0927,-0.0645 0.58601,-0.24954 1.0961,-0.4147 1.3852,-0.44909 4.4418,-1.8977 6.9911,-3.3178 0.46365,-0.25826 0.99289,-0.5353 1.1553,-0.59248 0.16162,-0.0562 0.2962,-0.16076 0.2962,-0.23698 0,-0.0754 0.15407,-0.17241 0.35549,-0.23697 0.20163,-0.0638 0.4336,-0.18301 0.53324,-0.26659 0.17526,-0.14571 2.4642,-1.7593 2.992,-2.1033 1.5512,-1.0115 5.3485,-4.4367 7.5539,-6.8133 2.1461,-2.3126 5.0623,-6.1755 6.5171,-8.6796 1.1086,-1.9081 1.2719,-2.2297 1.5107,-2.755 0.13763,-0.30207 0.53049,-1.0762 0.85912,-1.7478 2.3189,-4.7383 3.9005,-10.127 4.6805,-15.819 0.35459,-2.5891 0.43747,-4.1295 0.41472,-7.3466 -0.0255,-3.412 -0.13861,-5.0588 -0.65173,-8.3241 -0.52827,-3.3605 -2.2208,-9.2358 -3.2585,-11.316 -0.15063,-0.30017 -0.26648,-0.62295 -0.26668,-0.71094 0,-0.28716 -2.2949,-4.7035 -3.2881,-6.3394 l -0.97764,-1.5997 0.56291,-0.50359 c 0.56707,-0.48524 2.7369,-2.0657 4.1768,-3.0808 1.2614,-0.8891 1.2759,-0.95184 0.91835,-1.5108 -1.8697,-2.9232 -6.8339,-8.5234 -9.9238,-11.198 -1.6959,-1.4681 -7.2516,-5.5692 -7.5539,-5.5692 -0.0388,0 -0.78926,-0.42495 -1.6589,-0.94795 -3.313,-1.9926 -8.9627,-4.466 -12.531,-5.4803 -7.477,-2.1253 -15.494,-2.9205 -22.484,-2.2514 -1.6106,0.15419 -2.9742,0.22513 -3.0216,0.17772 -0.0795,-0.0798 -0.0719,-2.4416 0.0292,-8.2945 0.0227,-1.3062 0.10675,-2.4617 0.17764,-2.5772 0.13329,-0.21525 2.6733,-0.15466 6.2506,0.14812 1.8949,0.16037 1.9097,0.14431 1.8367,-1.7182 0.70828,-8.9835 0.50752,-18.71 -0.41475,-29.534 -0.0936,-0.0975 -1.547,-0.0938 -3.8213,0.0294 -2.0188,0.10962 -4.7495,0.26727 -6.0728,0.32584 -3.6746,0.24529 -7.7317,0.70993 -10.635,2.281 -1.29,0.712 -3.4642,2.6907 -4.7397,4.325 -0.67324,0.86229 -2.0815,3.5408 -2.3699,4.5027 -0.36164,1.2046 -0.68136,3.5142 -0.68136,5.0952 -0.01,1.5482 -0.01,1.5532 -0.38508,1.3923 -0.67312,-0.28675 -2.5715,-0.45057 -3.8511,-0.32586 -1.3365,0.13023 -3.3418,0.72543 -4.0288,1.1849 -1.5739,1.053 -2.1056,1.321 -2.429,1.2442 -0.19565,-0.0462 -1.4826,-0.27261 -2.8735,-0.50357 -1.3909,-0.23097 -3.139,-0.54225 -3.8806,-0.68134 -0.74198,-0.13903 -1.954,-0.3689 -2.6958,-0.50363 -2.0178,-0.36624 -4.1757,-0.76652 -4.6508,-0.85906 -0.23186,-0.045 -0.90812,-0.14139 -1.5108,-0.23698 -0.6027,-0.0955 -2.9842,-0.53393 -5.3026,-0.94792 -3.9781,-0.71038 -4.7585,-0.84827 -5.5692,-1.0072 -0.18543,-0.0363 -1.4825,-0.23617 -2.8734,-0.47399 -1.391,-0.23777 -3.2793,-0.5884 -4.2065,-0.77018 -0.92717,-0.1818 -3.2236,-0.61865 -5.1248,-0.94794 -4.2793,-0.74122 -4.2361,-0.7247 -4.2361,-0.9183 0,-0.20203 0.6518,-1.0762 2.044,-2.8439 0.60269,-0.76532 1.3216,-1.7108 1.5996,-2.1032 0.27823,-0.39254 0.71486,-0.98733 0.97761,-1.3034 0.26297,-0.31607 1.5729,-1.999 2.9326,-3.7622 2.8347,-3.6751 3.3011,-4.2894 3.9992,-5.1544 0.27811,-0.34469 0.67379,-0.83441 0.85901,-1.096 0.18551,-0.26165 0.53228,-0.71922 0.77028,-1.0072 0.23768,-0.28798 0.78663,-1.0054 1.2441,-1.5997 1.6498,-2.1417 3.4822,-4.5044 4.1769,-5.3914 0.38942,-0.49755 0.80869,-1.0681 0.94794,-1.2738 0.13927,-0.20577 0.39397,-0.47552 0.53322,-0.6221 0.27624,-0.29097 0.41796,-0.52981 2.4291,-3.1697 1.5019,-1.9716 1.9861,-2.2995 4.2954,-3.0216 0.69521,-0.21747 1.3596,-0.43695 1.4515,-0.5036 0.0929,-0.0665 0.5989,-0.2508 1.1554,-0.41473 0.55633,-0.16386 1.4974,-0.48703 2.0735,-0.71096 0.57644,-0.22394 1.2614,-0.44777 1.5404,-0.50356 1.5002,-0.5079 0.64215,-2.7019 0.88879,-3.9696 0.0578,-3.6407 0.133,-4.0288 0.82949,-4.0288 0.64638,-0.2894 1.3254,-0.69315 2.0144,-0.94791 0.4628,-0.22946 1.8248,-0.48633 2.2893,-0.7406 0.44647,0 0.44704,-0.59824 -1.3123,-6.7541 -0.25176,-0.88092 -0.4552,-1.8804 -0.46163,-2.2514 l -0.0113,-0.68134 1.1257,-0.0592 c 0.62298,-0.0302 1.199,-0.10165 1.2737,-0.14809 0.14117,-0.0872 0.10665,-0.33196 -0.3258,-2.755 -0.44793,-2.5095 -1.5606,-5.4464 -2.7253,-7.1392 -0.28732,-0.41758 -0.53322,-0.80482 -0.53322,-0.85906 0,-0.26779 -1.658,-2.3521 -2.8142,-3.5252 -3.9695,-4.0284 -9.7298,-6.4951 -15.256,-6.5467 -0.59437,-0.006 -1.136,-0.0149 -1.6292,0 z m -40.169,96.72 c 1.0449,-0.0106 2.466,-0.0211 4.0288,0 3.1255,0.0421 9.5066,0.14355 14.19,0.20736 4.6827,0.0637 9.1588,0.11757 9.9237,0.11849 0.76508,9.6e-4 1.3924,0.0504 1.3924,0.11849 0,0.15432 -2.3422,2.0231 -6.3986,5.0952 -1.5804,1.1968 -4.2121,3.2369 -6.1321,4.7693 -0.54173,0.43284 -1.2504,0.96803 -1.57,1.1849 -0.31964,0.21686 -0.68821,0.39362 -0.79987,0.38508 -0.11159,-0.009 -0.75599,-0.41453 -1.4515,-0.91831 -0.69559,-0.50376 -1.5417,-1.1098 -1.8663,-1.333 -0.32449,-0.22321 -1.0364,-0.72537 -1.5996,-1.1257 -1.0622,-0.75487 -4.9955,-3.5208 -8.1464,-5.7173 -2.176,-1.5169 -3.4024,-2.5401 -3.2882,-2.7253 0.0227,-0.0373 0.67304,-0.0484 1.7183,-0.0592 z m 85.048,3.9695 c 0.30369,0 0.84091,1.741 1.4219,4.6212 0.51588,2.5566 0.53419,2.4763 -1.3922,3.229 -2.236,0.87342 -4.7071,1.9475 -6.221,2.7253 -2.9142,1.4978 -7.2444,4.172 -8.2945,5.1248 -0.19142,0.17378 -0.40545,0.32585 -0.47399,0.32585 -0.33564,0 -5.1795,4.2828 -7.1392,6.3098 -5.0761,5.2503 -9.268,11.49 -11.909,17.715 -0.34981,0.82448 -0.7343,1.7362 -0.85912,2.0144 -0.4609,1.0276 -1.615,4.3654 -2.044,5.9543 -1.3083,4.8464 -2.0215,9.8525 -2.1329,14.663 -0.0189,0.85351 -0.0899,1.5721 -0.14807,1.6293 -0.0567,0.0566 -0.20874,-0.1797 -0.32589,-0.53323 -1.2997,-3.9377 -5.0274,-8.9771 -8.6204,-11.642 -0.81485,-0.60491 -1.4811,-1.138 -1.481,-1.1849 0,-0.046 0.20409,-0.30153 0.44428,-0.59248 0.24021,-0.29095 0.96358,-1.2718 1.6292,-2.1625 1.1772,-1.5749 1.9131,-2.518 3.4956,-4.5027 0.73067,-0.9168 2.3817,-3.0574 4.3546,-5.658 0.49937,-0.65822 1.201,-1.5378 1.5404,-1.9551 0.33966,-0.41728 0.72994,-0.9531 0.8887,-1.185 0.15859,-0.23182 0.69854,-0.92963 1.1849,-1.5404 0.83656,-1.051 4.2306,-5.389 5.5099,-7.0503 1.1844,-1.5383 4.3974,-5.6862 5.8061,-7.4947 0.79458,-1.02 1.726,-2.2179 2.0736,-2.6661 0.872,-1.1237 1.0331,-1.355 1.8663,-2.3698 0.64878,-0.79029 2.0298,-2.586 4.5916,-6.0135 0.63843,-0.8544 0.99949,-1.168 1.6292,-1.4219 0.44488,-0.17912 1.5087,-0.66601 2.3699,-1.0664 0.86128,-0.40044 1.6162,-0.71094 1.6589,-0.71094 0.0681,0 1.8884,-0.82357 4.3842,-1.9552 2.8207,-1.2788 5.9857,-2.6068 6.1913,-2.6068 z m 19.522,28.675 c 2.1269,-0.0379 5.1771,0.10549 7.08,0.4147 2.1672,0.35218 5.6507,1.3309 7.6725,2.1625 1.6846,0.69307 4.675,2.3285 5.5395,3.0216 l 0.50364,0.41472 -0.41481,0.56283 c -0.21888,0.31557 -1.4376,1.8487 -2.6957,3.4067 -1.2578,1.558 -2.3786,3.0177 -2.518,3.2289 -0.34098,0.51813 -5.9327,7.563 -6.3689,8.0279 -0.13063,0.13909 -0.49595,0.59639 -0.82946,1.0368 -0.33378,0.44056 -0.65313,0.81452 -0.71095,0.79981 -0.0568,-0.01 -0.70936,-0.24195 -1.4516,-0.50358 -0.74185,-0.26161 -1.7236,-0.52791 -2.1624,-0.59247 -0.43907,-0.0649 -0.84235,-0.19218 -0.91838,-0.29624 -0.10788,-0.14671 -0.78783,-2.7405 -0.97749,-3.7325 -0.0899,-0.47312 -2.8144,-11.422 -3.0216,-12.146 -0.13274,-0.46368 -0.50042,-1.851 -0.79977,-3.0808 -0.43283,-1.7763 -0.49142,-2.293 -0.3259,-2.4587 0.16579,-0.1658 1.1236,-0.24382 2.3994,-0.26662 z m -12.531,2.8142 c 0.41302,-0.044 0.44289,0.0273 1.8959,5.7765 0.80879,3.1991 1.5962,6.257 1.7477,6.8133 0.44657,1.6359 1.9976,7.8948 2.0737,8.3537 0.0558,0.33871 -0.16427,0.65105 -1.0961,1.5997 -2.1323,2.1702 -3.094,3.7739 -3.8214,6.2801 -0.6885,2.3744 -0.59295,5.3434 0.26668,7.939 0.19135,0.57735 0.29002,1.0985 0.23696,1.1849 -0.053,0.0865 -0.54657,0.42061 -1.1257,0.74057 -0.57937,0.31981 -1.3767,0.76663 -1.7478,0.97757 -0.37063,0.21092 -1.23,0.70265 -1.9254,1.096 -0.69552,0.39339 -2.0775,1.1645 -3.0512,1.7182 -0.97353,0.55345 -3.4401,1.9393 -5.4802,3.0808 -2.0399,1.1413 -3.971,2.228 -4.2953,2.4291 -1.2374,0.76641 -1.2242,0.7806 -2.0737,-1.0961 -1.4004,-3.0936 -2.2562,-6.0864 -2.8142,-9.7757 -0.31361,-2.072 -0.36922,-2.9081 -0.29623,-5.4803 0.0482,-1.6691 0.13224,-3.162 0.17775,-3.3474 0.0453,-0.18556 0.14124,-0.76374 0.20731,-1.2738 0.30134,-2.3159 1.2991,-5.7728 2.3995,-8.3538 2.1851,-5.1238 6.7327,-11.017 10.872,-14.101 1.3429,-1.0001 3.0895,-2.2152 3.4956,-2.3995 0.13906,-0.063 0.53438,-0.27643 0.85905,-0.47395 1.2356,-0.75201 3.0944,-1.6457 3.4955,-1.6885 z m -193.91,0.14813 c 2.6162,-0.05 5.0992,0.14787 7.1688,0.5628 2.5538,0.51201 6.0432,1.5331 6.0432,1.7774 0,0.11475 -0.37702,0.99749 -0.82944,1.9551 -0.45246,0.95763 -1.1618,2.509 -1.5997,3.4363 -0.43767,0.92727 -1.1554,2.4498 -1.5997,3.377 -0.44422,0.92733 -0.97741,2.0544 -1.1849,2.518 -1.1008,2.4576 -1.5255,3.2882 -1.6589,3.2882 -0.0804,0 -0.90023,-0.13663 -1.807,-0.32583 -6.4483,-1.3466 -13.146,0.86306 -17.685,5.8358 -0.68696,0.75262 -2.1329,2.7985 -2.1329,3.0216 0,0.045 -0.18,0.36889 -0.41474,0.7406 -1.2334,1.9542 -2.2335,6.4626 -2.044,9.2424 0.17421,2.5498 0.62547,4.6473 1.2738,6.132 0.22248,0.5105 0.25968,0.84942 0.14811,0.91832 -0.095,0.0588 -0.92278,0.20273 -1.8662,0.32585 -0.94358,0.12313 -2.5643,0.33472 -3.5844,0.47399 -1.02,0.13936 -2.3173,0.29821 -2.8735,0.35546 -0.55634,0.0563 -2.1767,0.26029 -3.614,0.44435 -0.98917,0.12673 -1.6734,0.22587 -2.2514,0.29623 -1.2926,-3.5696 -2.0144,-7.4192 -2.0144,-11.435 0,-10.269 4.6166,-19.462 11.879,-25.624 0.027,-0.0206 0.0613,-0.0384 0.0888,-0.0592 1.1855,-0.89368 2.6792,-1.9287 3.4363,-2.3699 1.758,-1.0241 5.2256,-2.6257 6.6356,-3.0512 0.83458,-0.25185 1.7658,-0.53037 2.044,-0.62204 0.86601,-0.28506 4.6056,-0.97307 5.7765,-1.0664 0.88349,-0.0705 1.794,-0.13141 2.6661,-0.1481 z m 19.344,5.4506 c 0.75037,0.003 5.4464,3.7661 7.3762,5.9246 0.50924,0.56953 0.974,1.1358 1.4219,1.6885 0.9593,1.3034 1.8112,2.6802 2.5772,4.1176 -0.005,0.005 0.006,0.026 0,0.0295 -0.11072,0.069 -3.9549,0.12907 -8.5315,0.1481 -7.0474,0.0286 -8.3351,-0.005 -8.413,-0.20734 -0.0501,-0.13149 0.18341,-0.82381 0.53321,-1.5404 0.35008,-0.71642 1.0415,-2.1626 1.5404,-3.2289 0.49832,-1.0665 1.0248,-2.1805 1.1553,-2.4587 1.2934,-2.7574 2.1859,-4.4736 2.3402,-4.4731 z m 211.07,0.20737 c 0.0795,-0.0246 0.15202,0.002 0.23698,0.0295 0.83049,0.27145 4.3694,4.1746 5.8358,6.4283 1.2922,1.9863 2.4268,4.0254 2.903,5.2433 0.2499,0.63787 0.56592,1.4296 0.71097,1.7478 0.54099,1.1875 1.5051,4.6728 1.8367,6.6652 0.40268,2.424 0.42582,3.5652 0.23698,7.4058 -0.15548,3.151 -0.26722,4.4803 -0.59246,5.9246 -0.83238,3.6953 -1.9299,6.4748 -3.9992,10.19 -1.3109,2.3538 -4.7714,6.5935 -6.8134,8.3834 -0.45538,0.39925 -0.97001,0.87502 -1.1552,1.0368 -4.1267,3.6003 -10.618,6.639 -16.352,7.6428 -1.4365,0.25141 -6.726,0.66074 -6.8726,0.53323 -0.0151,-0.0131 -0.91834,-0.067 -1.9848,-0.11848 -1.0662,-0.0513 -2.3764,-0.16546 -2.9327,-0.26664 -7.4616,-1.361 -13.825,-4.6537 -19.077,-9.8941 -1.925,-1.9205 -4.2614,-4.9026 -4.0287,-5.1248 0.16387,-0.15594 3.9198,-2.2566 6.3098,-3.5252 0.78831,-0.4183 2.1702,-1.1502 3.0512,-1.6589 0.88109,-0.50891 2.0931,-1.1889 2.6958,-1.5108 2.0853,-1.1138 3.2934,-1.7823 4.4138,-2.4291 0.61911,-0.35718 1.1757,-0.6517 1.2443,-0.6517 0.0691,0 0.23849,-0.10948 0.38504,-0.23699 0.6229,-0.54507 0.95685,-0.48597 1.8959,0.35546 5.3922,4.8324 13.474,4.4886 18.366,-0.77018 1.4032,-1.5083 1.8871,-2.2043 2.7253,-3.9102 0.81835,-1.6699 1.2124,-4.9648 0.82948,-7.0799 -0.10855,-0.60272 -0.24411,-1.2327 -0.26659,-1.3923 -0.0227,-0.15962 -0.0823,-0.32065 -0.14816,-0.38512 -0.0644,-0.0644 -0.11848,-0.23527 -0.11848,-0.35546 0,-0.45318 -1.2618,-2.8471 -2.044,-3.8806 l -0.79979,-1.0664 1.1257,-1.4812 c 3.5496,-4.6467 5.2236,-6.8284 7.6131,-9.8942 1.0664,-1.3681 2.3634,-3.036 2.8735,-3.7029 1.3032,-1.704 1.6573,-2.1775 1.8959,-2.2514 z m -211.12,32.793 c 0.0727,-0.0753 1.0732,0.21858 2.2218,0.65171 1.8977,0.71538 4.0245,1.4934 6.0432,2.1921 0.41746,0.14438 0.91053,0.30594 1.0961,0.38511 0.18539,0.0785 1.0022,0.41034 1.8366,0.71093 1.1584,0.41735 1.9149,0.68692 2.518,0.91832 -0.65514,2.0179 -1.4818,3.9463 -2.4884,5.7766 -3.247,-1.1848 -8.8548,-3.172 -11.494,-4.0584 -0.83475,-0.28026 -1.5828,-0.57728 -1.6885,-0.68134 -0.14419,-0.14145 -0.0226,-0.5552 0.47396,-1.5997 0.36497,-0.76832 0.81874,-2.0229 1.0072,-2.7846 0.18828,-0.76187 0.40099,-1.4346 0.47398,-1.5108 z m -33.741,24.261 26.809,1.8662 c -3.5278,1.2586 -7.3268,1.9552 -11.286,1.9552 -5.6054,0 -10.876,-1.3927 -15.523,-3.8214 z"
         sodipodiNodetypes="scscscscccccccccccccccccccccccscccsscccsssccccscccccsccccccccccscscccccscccccccccscccccscccccsccscccccccccccccccccccsccccccccccccccccccsccscccsccccccccccccsccccsccccsccccccccccccccsccccccsscccscscccssscscccccccccssscccscccccccccccccccccscccccscsscccccccccccccccccscsccccccccccscccccccccccscsscccscsscccccccccscccsccsccccccccccccccccccccccccccscccccsccsccccsccccccccccccccccccccscccsc"
         style="fill:#000000"
         inkscapeConnector-curvature="0" />
    </g>
  </g>
</svg>